<?xml version="1.0" encoding="utf-8"?>
<!-- Generator: Adobe Illustrator 16.0.0, SVG Export Plug-In . SVG Version: 6.00 Build 0)  -->
<!DOCTYPE svg PUBLIC "-//W3C//DTD SVG 1.1//EN" "http://www.w3.org/Graphics/SVG/1.1/DTD/svg11.dtd">
<svg version="1.1" xmlns="http://www.w3.org/2000/svg" xmlns:xlink="http://www.w3.org/1999/xlink" x="0px" y="0px" width="239px"
	 height="105.5px" viewBox="0 0 239 105.5" enable-background="new 0 0 239 105.5" xml:space="preserve">
<g id="Layer_1">
	<text transform="matrix(1 0 0 1 99.4229 98.6875)" font-family="'BaronNeueBlack'" font-size="17.4976">Co.</text>
	<g>
		<g>
			<path d="M47.331,23.186c-0.002-0.229,0.261-0.468,0.61-0.478c1.291-0.038,1.937-0.058,3.228-0.096
				c0.32-0.01,0.606,0.228,0.612,0.456c0.028,1.096,1.075,1.68,2.209,1.658c1.192-0.022,2.209-0.764,2.209-1.859
				c0-1.203-1.23-1.922-2.208-1.924c-0.167,0-1.648,0.063-3.171-0.508c-2.198-0.824-3.487-2.417-3.487-4.618
				c0-3.506,3.257-5.958,6.658-6.271c3.663-0.337,6.571,1.745,6.6,5.097c0.001,0.189-0.261,0.479-0.64,0.503
				c-1.268,0.08-1.901,0.119-3.169,0.199c-0.32,0.021-0.636-0.231-0.641-0.413c-0.028-1.091-1.017-1.607-2.15-1.524
				c-1.192,0.088-2.21,0.816-2.21,2.124c0,1.151,1.076,1.693,2.21,1.631c0.146-0.008,1.662-0.085,3.139,0.47
				c2.278,0.855,3.519,2.764,3.519,5.111c0,3.739-3.264,5.878-6.658,5.842C50.336,28.547,47.36,26.585,47.331,23.186z"/>
			<path d="M81.786,17.879c0,5.308-3.374,10.677-10.003,10.678c-6.716,0.001-10.031-4.911-10.031-9.766S65.066,8.752,71.783,8.142
				C78.412,7.539,81.786,12.571,81.786,17.879z M77.337,18.141c0-3.177-1.891-6.218-5.554-5.95c-3.693,0.27-5.553,3.431-5.553,6.454
				c0,2.996,1.859,5.932,5.552,5.864C75.445,24.442,77.337,21.288,77.337,18.141z"/>
			<path d="M84.169,21.436c0-5.369,0-8.055,0-13.423c0-0.272,0.262-0.566,0.611-0.598c1.268-0.113,1.901-0.168,3.169-0.281
				c0.349-0.031,0.61,0.22,0.61,0.498c0,5.442,0,8.165,0,13.609c0.262,1.812,1.714,2.868,3.343,2.838
				c1.657-0.03,3.314-1.011,3.314-2.977c0-5.619,0-8.431,0-14.049c0-0.285,0.264-0.592,0.612-0.623
				c1.279-0.114,1.92-0.172,3.199-0.286c0.319-0.028,0.579,0.237,0.579,0.528c0,5.718,0,8.578,0,14.297
				c0,4.809-3.344,7.616-7.705,7.616C87.628,28.586,84.169,25.829,84.169,21.436z"/>
			<path d="M113.186,8.897c0,0.307-0.233,0.558-0.611,0.585c-1.349,0.097-2.023,0.149-3.372,0.246c0,7.181,0,10.772,0,17.953
				c0,0.268-0.203,0.572-0.581,0.572c-1.268,0.002-1.902,0-3.17,0.002c-0.407,0.001-0.579-0.297-0.579-0.561
				c0-7.062,0-10.597,0-17.658c-1.36,0.098-2.043,0.148-3.403,0.246c-0.349,0.025-0.611-0.182-0.611-0.474c0-1.297,0-1.947,0-3.244
				c0-0.292,0.263-0.605,0.611-0.637c4.442-0.396,6.663-0.595,11.105-0.99c0.378-0.033,0.611,0.252,0.611,0.559
				C113.186,6.856,113.186,7.537,113.186,8.897z"/>
			<path d="M129.058,5.937c0.319,0.028,0.583,0.312,0.583,0.602c0,8.471,0,12.708,0,21.179c0,0.257-0.264,0.547-0.583,0.547
				c-1.279-0.002-1.917-0.002-3.196-0.004c-0.35,0-0.61-0.295-0.61-0.557c0-3.458,0-5.188,0-8.646
				c-2.663-0.099-3.997-0.147-6.66-0.246c0,3.548,0,5.321,0,8.869c0,0.269-0.26,0.57-0.608,0.57
				c-1.268-0.002-1.902-0.002-3.17-0.004c-0.349,0-0.608-0.31-0.608-0.582c0-8.983,0-13.477,0-22.46c0-0.307,0.26-0.574,0.608-0.543
				c1.268,0.113,1.902,0.17,3.17,0.283c0.349,0.031,0.608,0.327,0.608,0.629c0,3.399,0,5.098,0,8.498
				c2.663,0.146,3.997,0.221,6.66,0.367c0-3.314,0-4.97,0-8.283c0-0.294,0.261-0.535,0.61-0.504
				C127.141,5.766,127.778,5.822,129.058,5.937z"/>
			<path d="M136.995,11.056c0,1.712,0,2.57,0,4.282c2.919,0.158,4.381,0.238,7.3,0.396c0.378,0.021,0.579,0.272,0.579,0.545
				c0,1.27,0,1.904,0,3.175c0,0.242-0.201,0.506-0.579,0.492c-2.919-0.106-4.381-0.159-7.3-0.266c0,1.688,0,2.531,0,4.219
				c3.547,0.068,5.324,0.102,8.871,0.17c0.378,0.007,0.638,0.252,0.638,0.522c0,1.273,0,1.91,0,3.184c0,0.24-0.26,0.51-0.638,0.51
				c-5.06-0.007-7.591-0.009-12.649-0.016c-0.349,0-0.583-0.289-0.583-0.543c0-8.37,0-12.557,0-20.927
				c0-0.286,0.234-0.52,0.583-0.488c5.06,0.453,7.59,0.682,12.649,1.135c0.378,0.034,0.638,0.299,0.638,0.568
				c0,1.285,0,1.926,0,3.211c0,0.24-0.26,0.494-0.638,0.467C142.319,11.438,140.542,11.31,136.995,11.056z"/>
			<path d="M154.12,20.247c-0.593-0.021-0.888-0.033-1.481-0.055c0,3.041,0,4.563,0,7.604c0,0.233-0.26,0.496-0.638,0.496
				c-1.268-0.002-1.903-0.002-3.171-0.004c-0.35,0-0.579-0.27-0.579-0.508c0-7.845,0-11.77,0-19.614
				c0-0.268,0.229-0.486,0.579-0.455c2.523,0.227,3.785,0.338,6.309,0.564c1.192,0.106,6.979,0.681,6.979,6.485
				c0,2.917-3.394,4.714-3.547,5.077c-0.145,0.343,1.281,2.771,1.892,4.028c0.709,1.518,1.064,2.271,1.773,3.765
				c0.146,0.337-0.059,0.676-0.523,0.675c-1.396-0.002-2.096-0.002-3.491-0.004c-0.175,0-0.492-0.173-0.55-0.316
				C156.252,24.938,155.539,23.391,154.12,20.247z M152.639,16.301c1,0.054,1.5,0.081,2.5,0.135
				c0.727,0.039,2.588-0.006,2.588-1.864c0-1.83-2.064-2.178-2.588-2.215c-1-0.071-1.5-0.108-2.5-0.18
				C152.639,13.826,152.639,14.651,152.639,16.301z"/>
			<path d="M181.277,27.895c0,0.204-0.23,0.436-0.608,0.436c-1.268-0.002-1.903-0.002-3.171-0.004c-0.116,0-0.408-0.054-0.524-0.185
				c-3.326-4.368-4.989-6.637-8.315-11.359c0,4.429,0,6.642,0,11.069c0,0.218-0.261,0.463-0.609,0.463
				c-1.268-0.002-1.902-0.002-3.17-0.004c-0.406-0.001-0.581-0.253-0.581-0.475c0-7.316,0-10.978,0-18.294
				c0-0.249,0.175-0.459,0.581-0.423c1.279,0.115,1.921,0.174,3.2,0.289c0.146,0.013,0.406,0.093,0.494,0.21
				c3.338,4.891,5.005,7.243,8.343,11.774c0-4.299,0-6.447,0-10.745c0-0.235,0.263-0.423,0.612-0.392
				c1.256,0.113,1.885,0.17,3.141,0.283c0.378,0.034,0.608,0.262,0.608,0.491C181.277,17.774,181.277,21.15,181.277,27.895z"/>
		</g>
	</g>
	<line fill="none" x1="-67.249" y1="25.003" x2="295.858" y2="25.003"/>
	<g>
		<g>
			<path d="M8.703,65.901c0-0.577,0.527-1.121,1.297-1.121c0.711,0,0.711-0.166,1.422-0.166c0.71,0,0.71,0.229,1.42,0.229
				c0.712,0,0.712,0.088,1.424,0.088c0.713,0,0.713,0.033,1.426,0.033c0.713,0,0.713-0.2,1.426-0.2c0.706,0,1.314,0.562,1.314,1.139
				c0.024,0.512-0.05,1.054,0.108,1.473c0.175,0.464,0.647,0.775,0.956,1.124c0.315,0.355,0.685,0.646,1.106,0.88
				c0.407,0.227,0.845,0.413,1.32,0.524c0.454,0.106,0.93,0.03,1.417,0.03c0.5,0,0.932-0.132,1.391-0.251
				c0.482-0.126,0.92-0.223,1.329-0.467c0.424-0.254,0.706-0.592,1.018-0.959c0.313-0.368,0.552-0.712,0.719-1.178
				c0.157-0.439,0.424-0.856,0.424-1.37c0-0.531-0.071-1.032-0.23-1.483c-0.171-0.483-0.594-0.792-0.904-1.177
				c-0.315-0.392-0.551-0.838-0.962-1.122c-0.416-0.287-0.822-0.636-1.285-0.805c-0.485-0.178-1.008-0.374-1.487-0.415
				c-0.142,0-0.673,0.151-1.446,0.075c-0.41-0.041-0.875-0.168-1.406-0.263c-0.439-0.079-0.972,0.079-1.469-0.051
				c-0.443-0.115-0.889-0.344-1.363-0.51c-0.439-0.154-0.796-0.546-1.249-0.751c-0.463-0.22-1.039-0.201-1.464-0.452
				c-0.439-0.26-0.737-0.723-1.135-1.016c-0.409-0.302-0.754-0.649-1.118-0.986c-0.372-0.344-0.655-0.736-0.978-1.116
				c-0.326-0.384-0.925-0.559-1.199-0.978s-0.311-0.979-0.53-1.433c-0.217-0.448-0.688-0.806-0.85-1.286
				c-0.158-0.469,0.073-1.055-0.032-1.554c-0.102-0.481-0.18-0.959-0.23-1.469c-0.048-0.489-0.198-0.975-0.198-1.488
				c0-0.518,0.017-1.02,0.065-1.513c0.05-0.514,0.125-1.012,0.226-1.498c0.103-0.505,0.062-1.046,0.215-1.52
				c0.157-0.488,0.499-0.907,0.705-1.362c0.21-0.466,0.429-0.922,0.687-1.352c0.262-0.438,0.552-0.853,0.857-1.252
				c0.309-0.403,0.738-0.69,1.087-1.054c0.351-0.366,0.689-0.725,1.077-1.049c0.388-0.324,0.692-0.758,1.112-1.04
				c0.42-0.281,0.808-0.641,1.254-0.878c0.446-0.236,1.053-0.131,1.521-0.323c0.467-0.19,0.91-0.409,1.396-0.554
				c0.484-0.145,0.939-0.386,1.437-0.482c0.495-0.097,1.001-0.107,1.506-0.156c0.502-0.049,1.001-0.307,1.508-0.307
				c0.533,0,1.048,0.305,1.564,0.352c0.53,0.048,1.069-0.034,1.58,0.062c0.522,0.098,1.062,0.138,1.561,0.283
				c0.51,0.148,0.957,0.478,1.438,0.673c0.492,0.2,1.073,0.221,1.531,0.468c0.466,0.252,0.744,0.811,1.173,1.108
				c0.434,0.301,0.822,0.63,1.213,0.977c0.395,0.349,0.888,0.587,1.235,0.979c0.349,0.393,0.551,0.893,0.85,1.326
				c0.296,0.431,0.659,0.814,0.902,1.283c0.241,0.462,0.469,0.935,0.654,1.432c0.181,0.486,0.534,0.939,0.659,1.457
				c0.122,0.503-0.201,1.095-0.135,1.625c0.064,0.512,0.103,1.011,0.112,1.547c0,0.449-0.357,1.214-1.191,1.214
				c-0.872,0-0.872,0.086-1.743,0.086c-0.874,0-0.874-0.298-1.748-0.298c-0.875,0-0.875,0.168-1.75,0.168s-0.875-0.242-1.75-0.242
				c-0.705,0-1.494-0.479-1.494-0.928c-0.03-0.636-0.076-1.205-0.307-1.69c-0.257-0.543-0.696-0.914-1.147-1.269
				c-0.445-0.35-0.903-0.714-1.479-0.883c-0.536-0.156-1.126-0.305-1.729-0.305c-0.53,0-1.022,0.251-1.506,0.381
				c-0.508,0.137-1.067,0.169-1.489,0.449c-0.426,0.283-0.789,0.697-1.091,1.126c-0.282,0.4-0.582,0.866-0.726,1.394
				c-0.126,0.461,0,1.007,0,1.564c0,0.523,0.047,0.992,0.196,1.423c0.165,0.476,0.261,1.011,0.572,1.37
				c0.316,0.366,0.784,0.633,1.21,0.875c0.415,0.235,0.937,0.237,1.417,0.354c0.464,0.113,0.926,0.43,1.417,0.43
				c0.118,0,0.646-0.171,1.427-0.094c0.408,0.04,0.875,0.166,1.399,0.259c0.438,0.077,0.959-0.036,1.45,0.092
				c0.442,0.115,0.788,0.617,1.254,0.783c0.438,0.156,1.031-0.033,1.474,0.176c0.482,0.22,0.974,0.443,1.413,0.703
				c0.453,0.27,0.639,0.921,1.046,1.23c0.417,0.318,1.061,0.359,1.428,0.718c0.374,0.363,0.722,0.775,1.043,1.178
				c0.324,0.406,0.452,0.955,0.723,1.397c0.27,0.44,0.667,0.82,0.882,1.294c0.213,0.468,0.165,1.041,0.323,1.538
				c0.156,0.489,0.35,0.961,0.454,1.475c0.101,0.502,0.263,0.999,0.313,1.522c0.049,0.509,0.186,1.028,0.186,1.555
				c0,0.55,0.021,1.103-0.034,1.622c-0.057,0.546-0.254,1.071-0.367,1.583c-0.118,0.534-0.321,1.037-0.496,1.533
				c-0.181,0.514-0.246,1.08-0.482,1.553c-0.243,0.483-0.697,0.849-0.994,1.288c-0.302,0.447-0.723,0.784-1.075,1.184
				c-0.354,0.403-0.625,0.874-1.025,1.229c-0.4,0.355-0.926,0.532-1.366,0.838c-0.438,0.305-0.753,0.802-1.226,1.057
				c-0.469,0.253-0.916,0.591-1.414,0.794c-0.493,0.201-1.041,0.301-1.557,0.452c-0.511,0.15-1.067,0.14-1.595,0.24
				c-0.524,0.1-1.054,0.123-1.59,0.173c-0.531,0.049-1.055-0.041-1.592-0.041c-0.539-0.013-1.095,0.391-1.617,0.339
				c-0.537-0.054-1.042-0.347-1.559-0.441c-0.531-0.099-1.012-0.354-1.518-0.495c-0.52-0.145-1.085-0.117-1.575-0.307
				c-0.502-0.194-0.946-0.51-1.414-0.751c-0.478-0.246-1.076-0.298-1.514-0.592c-0.444-0.298-0.708-0.846-1.108-1.192
				c-0.403-0.349-0.754-0.735-1.108-1.133c-0.353-0.396-0.926-0.633-1.227-1.076c-0.295-0.436-0.476-0.969-0.716-1.45
				c-0.234-0.468-0.329-1.01-0.508-1.521c-0.173-0.491-0.445-0.972-0.563-1.502c-0.113-0.508-0.025-1.063-0.086-1.605
				C8.77,66.971,8.711,66.448,8.703,65.901z"/>
			<path d="M44.94,64.298c0-0.788-0.016-0.788-0.016-1.576s-0.162-0.788-0.162-1.575c0-0.788,0.222-0.788,0.222-1.576
				c0-0.789,0.085-0.789,0.085-1.578c0-0.788,0.032-0.788,0.032-1.576c0-0.789-0.194-0.789-0.194-1.578s0.016-0.789,0.016-1.577
				c0-0.789,0.179-0.789,0.179-1.578c0-0.787-0.236-0.787-0.236-1.574s0-0.787,0-1.574c0-0.79,0.019-0.79,0.019-1.58
				c0-0.788-0.125-0.788-0.125-1.576c0-0.79-0.074-0.79-0.074-1.579c0-0.791,0.077-0.791,0.077-1.581
				c0-0.789-0.079-0.789-0.079-1.578c0-0.791,0.029-0.791,0.029-1.582c0-0.792,0.186-0.792,0.186-1.585s0.019-0.793,0.019-1.585
				c0-0.578,0.552-1.337,1.321-1.337c0.872,0,0.872,0.169,1.743,0.169c0.874,0,0.874,0.123,1.747,0.123
				c0.875,0,0.875,0.076,1.75,0.076c0.875,0,0.875-0.146,1.75-0.146c0.77,0,1.242,0.537,1.242,1.115
				c0,0.784,0.258,0.784,0.258,1.569c0,0.784-0.088,0.784-0.088,1.568s-0.226,0.784-0.226,1.568c0,0.785,0.277,0.785,0.277,1.571
				c0,0.784-0.215,0.784-0.215,1.569s-0.048,0.785-0.048,1.57s-0.065,0.785-0.065,1.57s0.364,0.785,0.364,1.571
				c0,0.784-0.236,0.784-0.236,1.567s0.292,0.783,0.292,1.567c0,0.786-0.366,0.786-0.366,1.572c0,0.784,0.005,0.784,0.005,1.569
				c0,0.786,0.122,0.786,0.122,1.572c0,0.787,0.007,0.787,0.007,1.573s0,0.786,0,1.571c0,0.787,0.171,0.787,0.171,1.575
				c0,0.789-0.163,0.789-0.163,1.578c0,0.788-0.012,0.789,0.018,1.577c0.078,0.508,0.196,0.99,0.363,1.441
				c0.176,0.477,0.288,0.993,0.552,1.402c0.272,0.421,0.627,0.808,0.979,1.152c0.354,0.348,0.848,0.535,1.268,0.801
				c0.417,0.264,0.89,0.382,1.357,0.56c0.458,0.175,0.85,0.634,1.344,0.723c0.481,0.086,1.009,0.075,1.512,0.075
				c0.502,0,1.006-0.157,1.498-0.23c0.501-0.074,1.011-0.129,1.483-0.279c0.485-0.154,0.852-0.554,1.284-0.789
				c0.447-0.244,1.011-0.307,1.378-0.638c0.372-0.337,0.591-0.821,0.856-1.249c0.257-0.414,0.375-0.884,0.508-1.385
				c0.122-0.46,0.342-0.924,0.342-1.456c0-0.788-0.223-0.788-0.223-1.576s0.32-0.788,0.32-1.575c0-0.788,0.018-0.788,0.018-1.576
				c0-0.789-0.173-0.789-0.173-1.578c0-0.788,0.146-0.788,0.146-1.576c0-0.789-0.108-0.789-0.108-1.578s-0.016-0.789-0.016-1.577
				c0-0.789-0.198-0.789-0.198-1.578c0-0.787,0.412-0.787,0.412-1.574s-0.004-0.787-0.004-1.574c0-0.79-0.334-0.79-0.334-1.58
				c0-0.788-0.083-0.788-0.083-1.576c0-0.79,0.288-0.79,0.288-1.579c0-0.791-0.163-0.791-0.163-1.581
				c0-0.789,0.235-0.789,0.235-1.578c0-0.791-0.237-0.791-0.237-1.582c0-0.792,0.094-0.792,0.094-1.585s-0.102-0.793-0.102-1.585
				c0-0.578,0.665-1.12,1.435-1.12c0.705,0,0.705,0.066,1.41,0.066c0.704,0,0.704-0.183,1.408-0.183
				c0.706,0,0.706,0.192,1.411,0.192c0.707,0,0.707-0.048,1.413-0.048s0.707,0.069,1.413,0.069c0.706,0,1.342,0.444,1.342,1.022
				c0,0.788-0.032,0.788-0.032,1.576s-0.187,0.788-0.187,1.575c0,0.788,0.082,0.788,0.082,1.576c0,0.789,0.182,0.789,0.182,1.578
				c0,0.788-0.254,0.788-0.254,1.576c0,0.789,0.165,0.789,0.165,1.578s-0.064,0.789-0.064,1.577c0,0.789,0.212,0.789,0.212,1.578
				c0,0.787-0.369,0.787-0.369,1.574s0.386,0.787,0.386,1.574c0,0.79,0.029,0.79,0.029,1.58c0,0.788-0.423,0.788-0.423,1.576
				c0,0.79,0.376,0.79,0.376,1.579c0,0.791-0.018,0.791-0.018,1.581c0,0.789-0.205,0.789-0.205,1.578
				c0,0.791,0.168,0.791,0.168,1.582c0,0.792-0.243,0.792-0.243,1.585s0.067,0.793,0.067,1.585c0,0.546,0.061,1.08,0.013,1.6
				c-0.049,0.543-0.017,1.093-0.115,1.606c-0.103,0.533-0.189,1.078-0.343,1.58c-0.158,0.518-0.449,0.992-0.659,1.475
				c-0.215,0.494-0.508,0.949-0.774,1.405c-0.271,0.463-0.442,1.003-0.762,1.426c-0.323,0.426-0.827,0.706-1.197,1.09
				c-0.369,0.383-0.836,0.647-1.249,0.988c-0.409,0.337-0.75,0.757-1.198,1.052c-0.442,0.289-0.982,0.398-1.46,0.646
				c-0.468,0.243-0.841,0.692-1.341,0.894c-0.488,0.197-0.963,0.482-1.479,0.64c-0.503,0.153-1.051,0.209-1.579,0.323
				c-0.514,0.111-1.064,0.071-1.6,0.146c-0.521,0.072-1.052,0.075-1.591,0.111c-0.525,0.035-1.052-0.059-1.592-0.059
				c-0.538,0-1.085,0.405-1.61,0.367c-0.537-0.038-1.05-0.308-1.571-0.385c-0.532-0.078-1.025-0.309-1.539-0.426
				c-0.524-0.12-1.086-0.069-1.589-0.229c-0.512-0.163-0.978-0.442-1.464-0.645c-0.497-0.207-1.092-0.212-1.558-0.458
				c-0.474-0.252-0.801-0.757-1.242-1.049c-0.446-0.296-0.851-0.631-1.26-0.967c-0.412-0.34-1.009-0.484-1.379-0.863
				c-0.372-0.382-0.65-0.868-0.976-1.288c-0.325-0.419-0.529-0.93-0.806-1.386c-0.274-0.452-0.636-0.867-0.858-1.354
				c-0.219-0.479-0.251-1.038-0.417-1.55c-0.162-0.498-0.408-0.981-0.517-1.51c-0.105-0.513-0.137-1.049-0.189-1.588
				C44.925,65.372,44.94,64.841,44.94,64.298z"/>
			<path d="M118.921,48.009c0,0.531-0.007,1.039-0.051,1.53c-0.047,0.528,0.04,1.062-0.053,1.545
				c-0.102,0.522-0.441,0.966-0.591,1.437c-0.161,0.504-0.42,0.933-0.629,1.381c-0.223,0.477-0.486,0.885-0.757,1.302
				c-0.284,0.438-0.429,0.949-0.757,1.327c-0.34,0.393-0.711,0.742-1.088,1.075c-0.389,0.342-0.891,0.505-1.308,0.789
				c-0.427,0.292-0.736,0.75-1.181,0.986c-0.459,0.243-0.926,0.46-1.389,0.65c-0.484,0.199-0.976,0.354-1.449,0.503
				c-0.506,0.158-0.975,0.412-1.452,0.522c-0.529,0.122-1.032,0.292-1.502,0.366c-0.566,0.089-1.102,0.072-1.542,0.11
				c-0.789,0.068-1.35,0.151-1.532,0.151c-0.704,0-0.704-0.029-1.407-0.029c-0.705,0-0.705-0.185-1.41-0.185
				c-0.707,0-0.707-0.02-1.413-0.02s-0.813-0.39-1.276,0.145c-0.533,0.615-0.124,0.695-0.124,1.511s-0.123,0.815-0.123,1.63
				c0,0.818-0.075,0.818-0.075,1.636c0,0.816,0.146,0.816,0.146,1.633c0,0.817-0.064,0.817-0.064,1.635
				c0,0.818,0.257,0.818,0.257,1.637c0,0.817-0.088,0.817-0.088,1.634c0,0.819-0.226,0.819-0.226,1.639
				c0,0.82,0.276,0.82,0.276,1.641s-0.215,0.82-0.215,1.641c0,0.513-0.35,0.943-1.247,0.943c-0.872,0-0.872-0.065-1.743-0.065
				c-0.874,0-0.874,0.363-1.748,0.363c-0.875,0-0.875-0.235-1.75-0.235s-0.875,0.29-1.75,0.29c-0.77,0-1.124-0.783-1.124-1.296
				c0-0.781-0.005-0.781-0.005-1.562s-0.121-0.781-0.121-1.562c0-0.782-0.007-0.782-0.007-1.563c0-0.783,0-0.783,0-1.566
				s-0.171-0.783-0.171-1.567c0-0.782,0.162-0.782,0.162-1.565c0-0.782-0.018-0.782-0.018-1.564s0.007-0.782,0.007-1.564
				c0-0.783,0.133-0.783,0.133-1.567s-0.03-0.784-0.03-1.567s-0.159-0.783-0.159-1.566s-0.105-0.783-0.105-1.566
				c0-0.785,0.339-0.785,0.339-1.569c0-0.783-0.057-0.783-0.057-1.566c0-0.784-0.121-0.784-0.121-1.569
				c0-0.784,0.06-0.784,0.06-1.568c0-0.785-0.225-0.785-0.225-1.569c0-0.782,0.271-0.782,0.271-1.564s-0.148-0.782-0.148-1.565
				c0-0.785-0.082-0.785-0.082-1.57c0-0.783,0.158-0.783,0.158-1.567c0-0.785-0.221-0.785-0.221-1.57
				c0-0.786,0.318-0.786,0.318-1.571s0.018-0.785,0.018-1.569c0-0.786-0.172-0.786-0.172-1.572c0-0.788,0.145-0.788,0.145-1.576
				s-0.108-0.788-0.108-1.575c0-0.577,0.495-1.087,1.264-1.087c0.774,0,0.774-0.197,1.548-0.197c0.776,0,0.776,0.41,1.553,0.41
				c0.775,0,0.775-0.004,1.551-0.004c0.776,0,0.776-0.333,1.552-0.333c0.777,0,0.777-0.082,1.555-0.082
				c0.775,0,0.775,0.287,1.552,0.287c0.778,0,0.778-0.162,1.556-0.162c0.779,0,0.779,0.233,1.559,0.233s0.779-0.235,1.558-0.235
				c0.272,0,0.813,0.1,1.538,0.156c0.447,0.035,0.979-0.011,1.544,0.074c0.474,0.07,0.961,0.282,1.491,0.4
				c0.48,0.108,0.958,0.301,1.466,0.458c0.479,0.148,1.026,0.148,1.514,0.349c0.468,0.192,0.852,0.584,1.312,0.831
				c0.447,0.24,0.905,0.461,1.334,0.759c0.417,0.29,0.769,0.655,1.156,1.006c0.376,0.339,0.868,0.571,1.206,0.973
				c0.324,0.386,0.606,0.825,0.886,1.272c0.266,0.424,0.341,0.956,0.559,1.439c0.204,0.454,0.457,0.892,0.613,1.402
				c0.145,0.475,0.443,0.934,0.541,1.46c0.09,0.487-0.092,1.029-0.047,1.562C118.798,46.97,118.921,47.473,118.921,48.009z
				 M109.397,48.009c0-0.609-0.12-1.147-0.299-1.602c-0.212-0.538-0.648-0.869-1.027-1.224c-0.402-0.376-0.749-0.838-1.234-1.05
				c-0.523-0.229-1.066-0.466-1.554-0.561c-0.729-0.142-1.375-0.199-1.642-0.199c-0.704,0-0.704,0.193-1.407,0.193
				c-0.705,0-0.705-0.016-1.41-0.016c-0.707,0-0.707-0.179-1.413-0.179s-0.901-0.278-1.395,0.228
				c-0.506,0.521,0.007,0.708,0.007,1.434c0,0.727-0.019,0.727-0.019,1.453c0,0.726,0.125,0.726,0.125,1.451
				c0,0.728,0.073,0.728,0.073,1.454c0,0.729-0.076,0.729-0.076,1.456c0,0.729-0.485,0.789,0.021,1.312
				c0.489,0.506,0.554-0.034,1.258-0.034c0.706,0,0.706,0.185,1.411,0.185c0.706,0,0.706,0.02,1.412,0.02
				c0.707,0,0.707-0.207,1.413-0.207c0.281,0,0.884,0.158,1.6,0.038c0.488-0.082,1.072-0.101,1.596-0.314
				c0.488-0.2,1.046-0.437,1.45-0.805c0.38-0.346,0.61-0.899,0.821-1.437C109.285,49.157,109.397,48.619,109.397,48.009z"/>
			<path d="M155.8,48.009c0,0.531-0.007,1.039-0.051,1.53c-0.047,0.528,0.04,1.062-0.053,1.545
				c-0.102,0.522-0.441,0.965-0.592,1.437c-0.16,0.504-0.419,0.933-0.628,1.381c-0.223,0.477-0.486,0.885-0.757,1.302
				c-0.284,0.438-0.429,0.949-0.757,1.327c-0.34,0.393-0.711,0.742-1.088,1.074c-0.389,0.343-0.891,0.506-1.308,0.79
				c-0.427,0.292-0.736,0.75-1.181,0.986c-0.459,0.243-0.926,0.46-1.39,0.65c-0.483,0.199-0.975,0.354-1.449,0.503
				c-0.505,0.158-0.974,0.412-1.451,0.522c-0.529,0.122-1.032,0.292-1.502,0.366c-0.566,0.089-1.102,0.072-1.542,0.11
				c-0.789,0.068-1.35,0.151-1.532,0.151c-0.704,0-0.704-0.029-1.407-0.029c-0.705,0-0.705-0.185-1.41-0.185
				c-0.707,0-0.707-0.02-1.413-0.02s-0.813-0.39-1.276,0.145c-0.533,0.615-0.124,0.695-0.124,1.511s-0.123,0.815-0.123,1.63
				c0,0.818-0.075,0.818-0.075,1.636c0,0.816,0.146,0.816,0.146,1.633c0,0.817-0.064,0.817-0.064,1.635
				c0,0.818,0.257,0.818,0.257,1.637c0,0.817-0.088,0.817-0.088,1.634c0,0.819-0.226,0.819-0.226,1.639
				c0,0.82,0.276,0.82,0.276,1.641s-0.215,0.82-0.215,1.641c0,0.513-0.35,0.943-1.247,0.943c-0.872,0-0.872-0.065-1.743-0.065
				c-0.874,0-0.874,0.363-1.748,0.363c-0.875,0-0.875-0.235-1.75-0.235s-0.875,0.29-1.75,0.29c-0.77,0-1.124-0.783-1.124-1.296
				c0-0.781-0.005-0.781-0.005-1.562s-0.121-0.781-0.121-1.562c0-0.782-0.008-0.782-0.008-1.563c0-0.783,0-0.783,0-1.566
				s-0.171-0.783-0.171-1.567c0-0.782,0.162-0.782,0.162-1.565c0-0.782-0.018-0.782-0.018-1.564s0.007-0.782,0.007-1.564
				c0-0.783,0.134-0.783,0.134-1.567s-0.03-0.784-0.03-1.567s-0.159-0.783-0.159-1.566s-0.105-0.783-0.105-1.566
				c0-0.785,0.339-0.785,0.339-1.569c0-0.783-0.057-0.783-0.057-1.566c0-0.784-0.121-0.784-0.121-1.569
				c0-0.784,0.061-0.784,0.061-1.568c0-0.785-0.226-0.785-0.226-1.569c0-0.782,0.271-0.782,0.271-1.564s-0.148-0.782-0.148-1.565
				c0-0.785-0.082-0.785-0.082-1.57c0-0.783,0.158-0.783,0.158-1.567c0-0.785-0.222-0.785-0.222-1.57
				c0-0.786,0.318-0.786,0.318-1.571s0.019-0.785,0.019-1.569c0-0.786-0.173-0.786-0.173-1.572c0-0.788,0.145-0.788,0.145-1.576
				s-0.107-0.788-0.107-1.575c0-0.577,0.494-1.087,1.264-1.087c0.773,0,0.773-0.197,1.548-0.197c0.776,0,0.776,0.41,1.553,0.41
				c0.775,0,0.775-0.004,1.551-0.004c0.776,0,0.776-0.333,1.552-0.333c0.777,0,0.777-0.082,1.555-0.082
				c0.775,0,0.775,0.287,1.552,0.287c0.778,0,0.778-0.162,1.556-0.162c0.779,0,0.779,0.233,1.559,0.233s0.779-0.235,1.558-0.235
				c0.272,0,0.813,0.1,1.538,0.156c0.447,0.035,0.979-0.011,1.544,0.074c0.474,0.07,0.961,0.282,1.491,0.4
				c0.48,0.108,0.958,0.301,1.466,0.458c0.479,0.148,1.026,0.148,1.514,0.349c0.467,0.192,0.851,0.584,1.312,0.831
				c0.447,0.239,0.905,0.461,1.334,0.759c0.416,0.29,0.769,0.655,1.156,1.005c0.375,0.34,0.868,0.572,1.206,0.974
				c0.324,0.386,0.606,0.825,0.886,1.272c0.266,0.424,0.341,0.956,0.559,1.439c0.204,0.454,0.457,0.892,0.612,1.401
				c0.146,0.476,0.444,0.935,0.542,1.461c0.09,0.487-0.092,1.029-0.047,1.562C155.677,46.97,155.8,47.473,155.8,48.009z
				 M146.276,48.009c0-0.609-0.12-1.147-0.299-1.602c-0.212-0.538-0.648-0.869-1.027-1.224c-0.402-0.376-0.749-0.838-1.234-1.05
				c-0.523-0.229-1.066-0.466-1.554-0.561c-0.729-0.142-1.375-0.199-1.642-0.199c-0.704,0-0.704,0.193-1.407,0.193
				c-0.705,0-0.705-0.016-1.41-0.016c-0.707,0-0.707-0.179-1.413-0.179s-0.901-0.278-1.395,0.228
				c-0.506,0.521,0.007,0.708,0.007,1.434c0,0.727-0.019,0.727-0.019,1.453c0,0.726,0.125,0.726,0.125,1.451
				c0,0.728,0.073,0.728,0.073,1.454c0,0.729-0.076,0.729-0.076,1.456c0,0.729-0.485,0.789,0.021,1.312
				c0.489,0.506,0.554-0.034,1.258-0.034c0.706,0,0.706,0.185,1.411,0.185c0.706,0,0.706,0.02,1.412,0.02
				c0.707,0,0.707-0.207,1.413-0.207c0.281,0,0.885,0.158,1.6,0.038c0.488-0.082,1.072-0.101,1.596-0.314
				c0.488-0.2,1.046-0.437,1.45-0.805c0.38-0.346,0.61-0.9,0.821-1.437C146.164,49.157,146.276,48.619,146.276,48.009z"/>
			<path d="M186.186,69.478c0.834,0,1.379,0.528,1.379,1.105c0,0.712,0.162,0.712,0.162,1.423c0,0.71-0.223,0.71-0.223,1.42
				c0,0.712-0.086,0.712-0.086,1.424c0,0.713-0.032,0.713-0.032,1.427c0,0.713,0.195,0.713,0.195,1.426
				c0,0.513-0.562,1.059-1.396,1.059c-0.766,0-0.766-0.18-1.53-0.18c-0.764,0-0.764,0.237-1.527,0.237
				c-0.765,0-0.765-0.001-1.53-0.001c-0.765,0-0.765-0.019-1.529-0.019c-0.766,0-0.766,0.126-1.53,0.126
				c-0.763,0-0.763,0.074-1.526,0.074s-0.764-0.077-1.526-0.077c-0.766,0-0.766,0.08-1.531,0.08c-0.765,0-0.765-0.03-1.528-0.03
				c-0.766,0-0.766-0.186-1.531-0.186s-0.766-0.02-1.532-0.02c-0.765,0-0.765,0.208-1.53,0.208c-0.767,0-0.767-0.17-1.533-0.17
				c-0.769,0-0.769-0.124-1.537-0.124c-0.768,0-0.768-0.076-1.536-0.076c-0.77,0-1.307-0.39-1.307-0.902
				c0-0.787,0.065-0.787,0.065-1.574c0-0.786-0.259-0.786-0.259-1.573c0-0.788,0.089-0.788,0.089-1.576
				c0-0.789,0.227-0.789,0.227-1.577c0-0.79-0.278-0.79-0.278-1.58c0-0.788,0.216-0.788,0.216-1.577
				c0-0.788,0.049-0.788,0.049-1.576s0.064-0.788,0.064-1.576c0-0.79-0.365-0.79-0.365-1.58c0-0.789,0.237-0.789,0.237-1.579
				c0-0.788-0.293-0.788-0.293-1.577s0.368-0.789,0.368-1.579s-0.006-0.79-0.006-1.581c0-0.789-0.122-0.789-0.122-1.578
				c0-0.791-0.007-0.791-0.007-1.581s-0.001-0.79-0.001-1.58s-0.172-0.79-0.172-1.581c0-0.789,0.163-0.789,0.163-1.577
				s-0.018-0.788-0.018-1.576c0-0.792,0.007-0.792,0.007-1.583c0-0.789,0.135-0.789,0.135-1.579s-0.03-0.79-0.03-1.581
				c0-0.792-0.16-0.792-0.16-1.584c0-0.791-0.106-0.791-0.106-1.581c0-0.792,0.342-0.792,0.342-1.585
				c0-0.794-0.058-0.794-0.058-1.588c0-0.793-0.122-0.793-0.122-1.587c0-0.577,0.572-1.089,1.342-1.089
				c0.718,0,0.718-0.227,1.436-0.227c0.717,0,0.717,0.273,1.434,0.273c0.718,0,0.718-0.149,1.437-0.149s0.719-0.083,1.438-0.083
				s0.72,0.159,1.439,0.159c0.77,0,1.531,0.538,1.531,1.115c0,0.78-0.321,0.78-0.321,1.56s-0.019,0.779-0.019,1.558
				c0,0.78,0.174,0.78,0.174,1.56c0,0.781-0.146,0.781-0.146,1.562s0.108,0.78,0.108,1.562c0,0.779,0.016,0.779,0.016,1.56
				s0.199,0.78,0.199,1.561c0,0.782-0.414,0.782-0.414,1.563c0,0.78,0.004,0.78,0.004,1.561c0,0.781,0.336,0.781,0.336,1.563
				c0,0.78,0.083,0.78,0.083,1.562s-0.289,0.781-0.289,1.563c0,0.78,0.163,0.78,0.163,1.56s-0.235,0.779-0.235,1.559
				c0,0.782,0.237,0.782,0.237,1.564c0,0.781-0.095,0.781-0.095,1.562c0,0.782,0.102,0.782,0.102,1.563
				c0,0.783-0.123,0.783-0.123,1.565s-0.066,0.782-0.066,1.563c0,0.783,0.184,0.783,0.184,1.567s-0.194,0.784-0.194,1.569
				s-0.492,1.065,0.067,1.615c0.57,0.56,0.844,0.088,1.643,0.088c0.801,0,0.801-0.193,1.603-0.193c0.8,0,0.8,0.032,1.6,0.032
				c0.802,0,0.802,0.188,1.603,0.188c0.803,0,0.803-0.083,1.604-0.083c0.801,0,0.801-0.183,1.602-0.183
				c0.803,0,0.803,0.256,1.605,0.256c0.804,0,0.804-0.183,1.607-0.166C185.382,69.43,185.381,69.478,186.186,69.478z"/>
			<path d="M198.822,33.948c0.513,0,1.059,0.282,1.188,0.731c0.256,0.761,0.419,0.704,0.684,1.461
				c0.265,0.756,0.055,0.829,0.319,1.586c0.265,0.755,0.184,0.783,0.447,1.538c0.266,0.758,0.235,0.769,0.501,1.526
				c0.265,0.757,0.448,0.692,0.714,1.449c0.265,0.758,0.25,0.763,0.516,1.521c0.266,0.759,0.096,0.817,0.361,1.576
				c0.265,0.758,0.489,0.68,0.754,1.437c0.266,0.76,0.266,0.76,0.531,1.519c0.266,0.761,0.248,0.768,0.514,1.528
				c0.267,0.76,0.166,0.79,0.635,1.445c0.19-0.509,0.08-1.012,0.272-1.518c0.193-0.509,0.459-0.989,0.653-1.495
				c0.194-0.507,0.314-1.041,0.51-1.546c0.195-0.506,0.419-1.001,0.614-1.506c0.196-0.505,0.566-0.941,0.763-1.445
				c0.196-0.503,0.41-1,0.606-1.503c0.195-0.503,0.197-1.082,0.393-1.586c0.195-0.503,0.55-0.945,0.745-1.45
				c0.194-0.503,0.504-0.963,0.698-1.469c0.193-0.504,0.457-0.981,0.649-1.488c0.192-0.506,0.246-1.065,0.438-1.575
				c0.192-0.385,0.54-0.68,1.117-0.68c0.763,0,0.763-0.259,1.525-0.259c0.761,0,0.761,0.089,1.522,0.089
				c0.764,0,0.764,0.227,1.526,0.227c0.765,0,0.765-0.278,1.528-0.278c0.765,0,0.765,0.216,1.529,0.216
				c0.962,0,1.338,0.615,1.017,1.385c-0.291,0.731-0.346,0.712-0.631,1.445c-0.284,0.733,0.057,0.866-0.228,1.6
				c-0.284,0.732-0.506,0.646-0.79,1.379s-0.012,0.838-0.296,1.571s-0.627,0.601-0.911,1.335c-0.285,0.734-0.281,0.736-0.566,1.471
				c-0.285,0.735-0.171,0.779-0.456,1.515c-0.284,0.734-0.277,0.737-0.562,1.472c-0.285,0.733-0.285,0.733-0.569,1.468
				c-0.285,0.733-0.124,0.796-0.409,1.53c-0.285,0.735-0.438,0.676-0.723,1.411s-0.269,0.742-0.554,1.478
				c-0.285,0.734-0.292,0.732-0.577,1.467c-0.285,0.735-0.41,0.687-0.695,1.421c-0.286,0.736-0.258,0.747-0.543,1.483
				c-0.285,0.735-0.136,0.793-0.421,1.528c-0.286,0.735-0.187,0.774-0.473,1.51c-0.285,0.736-0.604,0.612-0.889,1.349
				s-0.231,0.757-0.518,1.493c-0.285,0.734-0.172,0.777-0.457,1.512s-0.341,0.713-0.626,1.447c-0.285,0.736-0.073,0.818-0.359,1.555
				c-0.285,0.735-0.541,0.637-0.826,1.372c-0.286,0.736-0.146,0.791-0.432,1.527c-0.286,0.737-0.208,0.768-0.494,1.505
				c-0.285,0.735-0.435,0.678-0.72,1.414c-0.287,0.738-0.079,0.818-0.365,1.557c-0.287,0.739-0.586,0.623-0.873,1.361
				c-0.286,0.739-0.291,0.735-0.589,1.47c-0.013,0.03,0.172-0.03,0.161,0c-0.128,0.449-0.595,0.637-1.236,0.637
				c-0.737,0-0.737,0.108-1.474,0.108s-0.736,0.016-1.472,0.016c-0.737,0-0.737,0.199-1.475,0.199c-0.739,0-0.739-0.414-1.478-0.414
				s-0.738,0.004-1.478,0.004c-0.455,0-0.931,0.122-1.16-0.142c-0.257-0.293-0.399-0.896-0.163-1.301
				c0.019-0.026,0.235,0.243,0.247,0.213c0.281-0.709,0.118-0.772,0.389-1.486c0.271-0.715,0.49-0.632,0.761-1.348
				c0.271-0.715,0.048-0.799,0.318-1.514c0.271-0.716,0.359-0.683,0.63-1.398s0.175-0.752,0.446-1.469
				c0.27-0.715,0.385-0.672,0.655-1.387c0.271-0.718,0.335-0.694,0.606-1.411c0.271-0.719,0.1-0.783,0.371-1.502
				c0.271-0.718,0.738-0.641,0.731-1.408c-0.007-0.777-0.337-0.746-0.622-1.469c-0.285-0.724-0.221-0.749-0.506-1.473
				c-0.285-0.725-0.465-0.653-0.75-1.378c-0.284-0.724-0.254-0.735-0.539-1.459c-0.284-0.724-0.11-0.792-0.396-1.516
				c-0.285-0.725-0.362-0.694-0.647-1.419s-0.455-0.657-0.74-1.382s-0.048-0.818-0.333-1.543c-0.285-0.724-0.439-0.663-0.725-1.387
				c-0.286-0.726-0.226-0.749-0.512-1.475c-0.284-0.723-0.483-0.645-0.768-1.367c-0.285-0.723,0.061-0.858-0.225-1.582
				c-0.285-0.726-0.646-0.583-0.932-1.309c-0.285-0.725-0.312-0.714-0.598-1.438c-0.285-0.726,0.11-0.881-0.176-1.606
				s-0.638-0.587-0.924-1.312c-0.285-0.725-0.269-0.731-0.554-1.457c-0.285-0.727-0.095-0.802-0.381-1.528
				c-0.287-0.728-0.443-0.666-0.73-1.394c-0.286-0.729-0.052-0.822-0.347-1.547c-0.173-0.382-0.176-0.703,0.087-1.008
				c0.224-0.259,0.534-0.495,1.006-0.495c0.82,0,0.82-0.109,1.641-0.109c0.818,0,0.818-0.048,1.638-0.048
				c0.821,0,0.821,0.108,1.642,0.108c0.822,0,0.822,0.039,1.645,0.055C198.001,33.906,198,33.948,198.822,33.948z"/>
		</g>
	</g>
	<g>
		<g>
			<line stroke="#000000" stroke-miterlimit="10" x1="136.353" y1="91.5" x2="164.507" y2="91.5"/>
			<polygon points="148.235,88.967 152.624,91.5 148.235,94.033 			"/>
		</g>
		<g>
			<line stroke="#000000" stroke-miterlimit="10" x1="64.103" y1="91.5" x2="92.257" y2="91.5"/>
			<polygon points="75.985,88.967 80.374,91.5 75.985,94.033 			"/>
		</g>
	</g>
	<g>
		<g id="iconos_1_">
			<path fill="#010101" d="M463.988-38.328v0.812l-20.896,7.466l-1.148,0.143v6.662h2.939v9.951l-0.994,1.164l0.875,7.145h0.854
				v2.135c0,0-1.08,0.099-1.08,2.816c0,1.797,0.988,2.402,2.742,2.402c1.943,0,2.299-1.122,2.299-2.776c0,0-0.607,1.241-2.199,1.241
				c-1.131,0-1.301-0.696-1.301-1.241c0-0.636,0.092-1.359,1.744-1.359v-3.218h0.881l0.875-7.145l-1.021-1.162v-9.953h5.145v3.408
				l2.221,3.737h4.393v15.878h-3.674v8.733h17.635v-8.733h-3.674v-23.023h4.408v7.146h8.082v-7.146h0.736v-6.637l-1.041-0.17
				l-15.125-7.271v-1.006H463.988z M468.396-18.279v3.768h-3.441L468.396-18.279z M466.135-11.337l-3.615,3.702v-3.702H466.135z
				 M462.52-16.213v-3.856h3.668L462.52-16.213z M462.52-29.596h3.918l-3.551,3.97h-0.367V-29.596z M462.52-3.397h2.938
				l-2.203,2.382h-0.734V-3.397z M468.396-6.573h-2.514l2.514-2.879V-6.573z M468.396-25.626h-3.215l3.215-3.623V-25.626z
				 M468.396-1.016h-2.449l2.449-2.515V-1.016z M463.988-35.843v3.197l-13.723,1.705L463.988-35.843z M445.693-11.436
				c0-0.62,0.465-1.125,1.041-1.125c0.574,0,1.041,0.503,1.041,1.125s-0.467,1.126-1.041,1.126
				C446.158-10.31,445.693-10.814,445.693-11.436z M447.822-14.128l-0.336-0.384h-1.562l-0.307,0.358v-9.092h2.205V-14.128z
				 M448.557-24.833h-0.734h-2.205h-0.734h-1.469v-3.658l16.9-2.143v1.243v3.765v0.793H448.557z M470.602-24.833v-0.793v-4.514
				l0.186-0.208l11.57,1.833v3.682H470.602z M477.324-30.938l-9.662-1.57v-3.076L477.324-30.938z"/>
		</g>
		<g>
			<path d="M457.421,109.239c0.122-0.104,0.367-0.087,0.542,0.053l1.33,1.33c0.053,0.123,0.088,0.368,0,0.455
				c-1.103,1.051-2.695,1.785-4.375,1.785c-3.431,0-6.213-2.45-6.213-6.301c0-3.692,2.59-6.301,6.213-6.301
				c1.68,0,3.272,0.735,4.375,1.803c0.07,0.123,0.07,0.368-0.034,0.473l-1.365,1.348c-0.141,0.105-0.351,0.105-0.473,0
				c-0.665-0.665-1.54-1.067-2.503-1.067c-2.188,0-3.5,1.593-3.5,3.745c0,2.311,1.574,3.746,3.5,3.746
				C455.881,110.308,456.756,109.904,457.421,109.239z"/>
			<path d="M473.081,106.614c0,3.098-2.03,6.23-6.021,6.23c-4.043,0-6.038-3.133-6.038-6.23s1.995-6.213,6.038-6.213
				C471.051,100.401,473.081,103.517,473.081,106.614z M470.403,106.649c0-1.891-1.138-3.78-3.343-3.78
				c-2.223,0-3.343,1.89-3.343,3.78c0,1.873,1.12,3.728,3.343,3.728C469.266,110.377,470.403,108.522,470.403,106.649z"/>
			<path d="M477.366,111.445c0,0.752-0.613,1.348-1.418,1.348c-0.771,0-1.4-0.596-1.4-1.348c0-0.735,0.63-1.365,1.4-1.365
				C476.753,110.08,477.366,110.71,477.366,111.445z"/>
		</g>
		<g>
			<g>
				<path d="M395.913,37.187c-0.002-0.229,0.261-0.47,0.609-0.479c1.291-0.038,1.937-0.058,3.228-0.096
					c0.319-0.01,0.605,0.227,0.611,0.456c0.028,1.096,1.074,1.681,2.208,1.659c1.192-0.022,2.211-0.764,2.211-1.859
					c0-1.203-1.232-1.922-2.211-1.924c-0.168,0-1.643,0.064-3.166-0.507c-2.198-0.824-3.49-2.418-3.49-4.619
					c0-3.506,3.255-5.958,6.656-6.271c3.663-0.337,6.57,1.745,6.6,5.097c0.002,0.189-0.26,0.479-0.638,0.503
					c-1.268,0.08-1.903,0.119-3.171,0.199c-0.319,0.021-0.633-0.231-0.638-0.413c-0.028-1.091-1.02-1.607-2.153-1.524
					c-1.192,0.088-2.208,0.816-2.208,2.124c0,1.151,1.074,1.693,2.208,1.631c0.146-0.008,1.665-0.085,3.142,0.47
					c2.278,0.855,3.517,2.764,3.517,5.111c0,3.739-3.265,5.878-6.658,5.842C398.916,42.547,395.941,40.586,395.913,37.187z"/>
				<path d="M430.367,31.879c0,5.308-3.372,10.677-10.002,10.678c-6.717,0.001-10.032-4.909-10.032-9.764
					s3.315-10.041,10.032-10.651C426.995,21.539,430.367,26.571,430.367,31.879z M425.918,32.141c0-3.177-1.889-6.218-5.553-5.95
					c-3.692,0.27-5.556,3.433-5.556,6.456c0,2.996,1.863,5.929,5.556,5.861C424.029,38.441,425.918,35.288,425.918,32.141z"/>
				<path d="M432.75,35.434c0-5.369,0-8.053,0-13.421c0-0.272,0.263-0.565,0.611-0.597c1.268-0.113,1.903-0.168,3.171-0.281
					c0.35-0.031,0.608,0.219,0.608,0.497c0,5.442,0,8.165,0,13.609c0.262,1.812,1.715,2.869,3.344,2.839
					c1.657-0.03,3.314-1.013,3.314-2.979c0-5.619,0-8.427,0-14.045c0-0.285,0.264-0.594,0.612-0.625
					c1.279-0.114,1.917-0.171,3.196-0.285c0.319-0.028,0.582,0.235,0.582,0.526c0,5.718,0,8.577,0,14.296
					c0,4.809-3.344,7.617-7.705,7.617C436.21,42.586,432.75,39.827,432.75,35.434z"/>
				<path d="M461.768,22.896c0,0.307-0.233,0.56-0.611,0.587c-1.349,0.097-2.023,0.149-3.372,0.246c0,7.181,0,10.771,0,17.952
					c0,0.268-0.202,0.571-0.58,0.571c-1.268,0.002-1.903,0.002-3.171,0.004c-0.407,0.001-0.579-0.299-0.579-0.562
					c0-7.062,0-10.594,0-17.655c-1.36,0.098-2.043,0.146-3.403,0.244c-0.349,0.025-0.611-0.182-0.611-0.474c0-1.297,0-1.947,0-3.244
					c0-0.292,0.263-0.606,0.611-0.638c4.442-0.396,6.663-0.593,11.105-0.988c0.378-0.033,0.611,0.251,0.611,0.558
					C461.768,20.856,461.768,21.535,461.768,22.896z"/>
				<path d="M477.64,19.938c0.319,0.028,0.583,0.312,0.583,0.601c0,8.471,0,12.707,0,21.178c0,0.257-0.263,0.548-0.582,0.548
					c-1.279-0.002-1.918-0.002-3.197-0.004c-0.35,0-0.61-0.296-0.61-0.558c0-3.458,0.001-5.188,0.001-8.646
					c-2.663-0.099-3.997-0.147-6.66-0.246c0,3.548-0.001,5.32-0.001,8.868c0,0.269-0.259,0.571-0.607,0.571
					c-1.268-0.002-1.903-0.002-3.171-0.004c-0.349,0-0.608-0.311-0.608-0.583c0-8.983,0-13.476,0-22.459
					c0-0.307,0.26-0.575,0.608-0.544c1.268,0.113,1.902,0.172,3.17,0.285c0.349,0.031,0.608,0.326,0.608,0.628
					c0,3.399,0,5.098,0,8.498c2.663,0.146,3.997,0.221,6.66,0.367c0-3.314,0-4.97,0-8.283c0-0.294,0.261-0.536,0.61-0.505
					C475.723,19.765,476.36,19.823,477.64,19.938z"/>
				<path d="M485.578,25.056c0,1.712,0,2.57,0,4.282c2.919,0.158,4.38,0.238,7.299,0.396c0.378,0.021,0.579,0.272,0.579,0.545
					c0,1.27,0,1.903,0,3.174c0,0.242-0.201,0.507-0.579,0.493c-2.919-0.106-4.38-0.159-7.299-0.266c0,1.688,0,2.531,0,4.219
					c3.547,0.068,5.323,0.102,8.87,0.17c0.378,0.007,0.638,0.252,0.638,0.522c0,1.273,0,1.909,0,3.183
					c0,0.24-0.259,0.513-0.637,0.513c-5.06-0.007-7.591-0.011-12.65-0.018c-0.349,0-0.583-0.29-0.583-0.544
					c0-8.37,0-12.556,0-20.926c0-0.286,0.234-0.521,0.583-0.489c5.06,0.453,7.59,0.682,12.649,1.135
					c0.378,0.034,0.638,0.3,0.638,0.569c0,1.285,0,1.926,0,3.211c0,0.24-0.26,0.494-0.638,0.467
					C490.901,25.438,489.125,25.31,485.578,25.056z"/>
				<path d="M502.704,34.247c-0.593-0.021-0.89-0.033-1.483-0.055c0,3.041,0,4.562,0,7.604c0,0.233-0.259,0.499-0.637,0.499
					c-1.268-0.002-1.904-0.004-3.172-0.006c-0.35,0-0.579-0.271-0.579-0.509c0-7.845,0-11.769,0-19.613
					c0-0.268,0.229-0.487,0.579-0.456c2.523,0.227,3.786,0.338,6.31,0.564c1.192,0.106,6.978,0.682,6.978,6.486
					c0,2.917-3.394,4.714-3.547,5.077c-0.145,0.343,1.281,2.771,1.892,4.028c0.709,1.518,1.063,2.271,1.772,3.765
					c0.146,0.337-0.058,0.676-0.522,0.675c-1.396-0.002-2.096-0.002-3.491-0.004c-0.175,0-0.492-0.173-0.55-0.316
					C504.834,38.938,504.123,37.391,502.704,34.247z M501.221,30.302c1,0.054,1.501,0.081,2.501,0.135
					c0.728,0.039,2.587-0.007,2.587-1.865c0-1.83-2.063-2.178-2.587-2.215c-1-0.071-1.501-0.108-2.501-0.18
					C501.221,27.826,501.221,28.652,501.221,30.302z"/>
				<path d="M529.859,41.894c0,0.204-0.229,0.437-0.607,0.437c-1.268-0.002-1.903-0.002-3.171-0.004
					c-0.116,0-0.408-0.054-0.524-0.185c-3.326-4.368-4.99-6.637-8.316-11.359c0,4.429,0,6.641,0,11.068
					c0,0.218-0.26,0.464-0.608,0.464c-1.268-0.002-1.902-0.002-3.17-0.004c-0.407-0.001-0.582-0.254-0.582-0.476
					c0-7.316,0-10.977,0-18.293c0-0.249,0.175-0.459,0.581-0.423c1.279,0.115,1.921,0.174,3.2,0.289
					c0.146,0.013,0.406,0.094,0.494,0.211c3.338,4.891,5.005,7.243,8.343,11.774c0-4.299,0-6.448,0-10.746
					c0-0.235,0.262-0.423,0.611-0.392c1.256,0.113,1.886,0.17,3.142,0.283c0.378,0.034,0.608,0.262,0.608,0.491
					C529.859,31.774,529.859,35.149,529.859,41.894z"/>
			</g>
		</g>
		<line fill="none" x1="462.887" y1="-74.058" x2="462.887" y2="140.064"/>
		<g>
			<g>
				<g>
					<path d="M357.243,79.901c0-0.577,0.569-1.203,1.339-1.203c0.711,0,0.711-0.162,1.422-0.162s0.711,0.27,1.421,0.27
						c0.712,0,0.712-0.218,1.424-0.218c0.713,0,0.713-0.041,1.426-0.041s0.713,0.222,1.426,0.222c0.706,0,1.39,0.555,1.39,1.132
						c0.023,0.512,0.046,0.99,0.203,1.409c0.175,0.464,0.554,0.772,0.862,1.122c0.315,0.355,0.577,0.769,0.997,1.003
						c0.408,0.227,0.828,0.569,1.303,0.681c0.454,0.106,0.979,0.048,1.466,0.048c0.5,0,0.941-0.325,1.4-0.444
						c0.482-0.126,1.036-0.05,1.445-0.294c0.424-0.254,0.878-0.548,1.19-0.915c0.312-0.368,0.286-0.953,0.453-1.419
						c0.157-0.439,0.448-0.868,0.448-1.382c0-0.531,0.02-1.084-0.141-1.535c-0.171-0.483-0.425-0.995-0.734-1.38
						c-0.315-0.392-0.73-0.782-1.141-1.066c-0.416-0.287-1.05-0.188-1.513-0.356c-0.485-0.178-0.926-0.482-1.406-0.523
						c-0.141,0-0.664,0.018-1.437-0.059c-0.41-0.041-0.897-0.044-1.429-0.139c-0.438-0.079-0.878-0.32-1.376-0.45
						c-0.443-0.115-0.899-0.244-1.373-0.41c-0.44-0.154-0.944-0.188-1.396-0.393c-0.463-0.219-0.875-0.519-1.3-0.77
						c-0.44-0.26-0.788-0.629-1.186-0.922c-0.41-0.302-0.918-0.466-1.281-0.803c-0.372-0.344-0.817-0.632-1.14-1.012
						c-0.326-0.384-0.667-0.784-0.941-1.204c-0.273-0.419-0.341-0.972-0.56-1.425c-0.217-0.448-0.317-0.941-0.479-1.422
						c-0.158-0.469-0.498-0.896-0.604-1.396c-0.102-0.481,0.151-1.022,0.101-1.532c-0.048-0.489-0.394-0.969-0.394-1.482
						c0-0.518,0.298-1.006,0.346-1.499c0.051-0.514,0.097-1.002,0.196-1.488c0.104-0.505-0.106-1.087,0.047-1.561
						c0.157-0.488,0.443-0.94,0.648-1.396c0.211-0.466,0.482-0.906,0.74-1.336c0.262-0.438,0.512-0.893,0.817-1.292
						c0.309-0.403,0.868-0.585,1.217-0.948c0.352-0.366,0.59-0.836,0.977-1.16c0.389-0.324,0.723-0.733,1.143-1.015
						c0.419-0.282,1.025-0.244,1.473-0.481c0.446-0.236,0.741-0.79,1.21-0.982c0.469-0.19,0.989-0.266,1.475-0.41
						c0.483-0.145,0.998-0.178,1.495-0.274c0.495-0.097,0.977-0.324,1.481-0.373c0.502-0.049,1.02,0.101,1.526,0.101
						c0.533,0,1.071-0.176,1.588-0.129c0.53,0.048,1.061,0.144,1.571,0.238c0.522,0.098,1.025,0.291,1.524,0.437
						c0.511,0.148,1,0.35,1.482,0.545c0.491,0.2,0.938,0.481,1.397,0.729c0.466,0.252,0.896,0.544,1.325,0.842
						c0.434,0.302,0.888,0.568,1.278,0.915c0.395,0.35,0.673,0.805,1.021,1.197c0.349,0.392,0.764,0.725,1.062,1.158
						c0.297,0.431,0.485,0.922,0.729,1.391c0.24,0.462,0.599,0.876,0.784,1.373c0.182,0.486,0.373,0.987,0.498,1.505
						c0.122,0.503,0.212,1.031,0.277,1.562c0.064,0.512,0.111,1.047,0.12,1.583c0,0.449-0.679,0.989-1.513,0.989
						c-0.871,0-0.871,0.063-1.743,0.063c-0.874,0-0.874-0.148-1.747-0.148c-0.875,0-0.875,0.195-1.75,0.195s-0.875-0.159-1.75-0.159
						c-0.705,0-1.313-0.493-1.313-0.942c-0.03-0.636-0.185-1.234-0.415-1.72c-0.258-0.543-0.765-0.884-1.217-1.238
						c-0.444-0.35-0.964-0.513-1.54-0.682c-0.536-0.156-1.069-0.382-1.672-0.382c-0.53,0-1.065-0.031-1.549,0.099
						c-0.508,0.137-1.017,0.342-1.439,0.622c-0.426,0.283-0.668,0.775-0.971,1.205c-0.282,0.4-0.476,0.84-0.62,1.367
						c-0.127,0.461-0.461,0.943-0.461,1.501c0,0.523,0.162,1.03,0.311,1.461c0.165,0.476,0.569,0.803,0.88,1.162
						c0.316,0.366,0.528,0.907,0.955,1.149c0.415,0.235,0.979,0.205,1.459,0.322c0.465,0.113,0.944,0.221,1.436,0.221
						c0.118,0,0.637,0.061,1.417,0.138c0.408,0.04,0.924-0.151,1.448-0.059c0.438,0.077,0.871,0.376,1.361,0.504
						c0.442,0.115,0.862,0.36,1.327,0.526c0.439,0.156,0.853,0.369,1.296,0.578c0.481,0.22,0.913,0.473,1.352,0.732
						c0.453,0.27,1.021,0.339,1.428,0.648c0.417,0.318,0.912,0.56,1.28,0.918c0.374,0.363,0.456,0.991,0.778,1.394
						c0.324,0.406,0.751,0.726,1.021,1.168c0.27,0.44,0.679,0.823,0.894,1.297c0.213,0.468,0.365,0.984,0.524,1.481
						c0.156,0.489,0.234,1.017,0.338,1.53c0.101,0.502,0.052,1.035,0.102,1.559c0.049,0.509,0.043,1.021,0.043,1.548
						c0,0.55-0.146,1.063-0.2,1.583c-0.057,0.546,0.079,1.102-0.034,1.613c-0.117,0.534-0.373,1.014-0.548,1.51
						c-0.181,0.514-0.514,0.932-0.751,1.403c-0.243,0.484-0.399,0.988-0.696,1.428c-0.302,0.447-0.439,1.019-0.792,1.419
						c-0.354,0.403-0.741,0.8-1.142,1.154s-0.866,0.649-1.307,0.955c-0.438,0.305-1.022,0.369-1.495,0.624
						c-0.47,0.253-0.961,0.416-1.459,0.619c-0.493,0.201-0.875,0.723-1.391,0.874c-0.512,0.15-1.062,0.187-1.592,0.287
						c-0.523,0.1-1.043,0.354-1.578,0.403c-0.531,0.049-1.085-0.273-1.624-0.273c-0.539-0.013-1.062-0.016-1.584-0.068
						c-0.537-0.055-1.09,0.05-1.606-0.045c-0.53-0.099-1.085-0.118-1.591-0.26c-0.52-0.145-0.977-0.486-1.467-0.676
						c-0.503-0.195-0.993-0.408-1.461-0.649c-0.478-0.245-0.902-0.569-1.341-0.862c-0.444-0.298-0.966-0.498-1.366-0.845
						c-0.402-0.349-0.866-0.666-1.22-1.063c-0.353-0.396-0.492-0.974-0.793-1.417c-0.295-0.436-0.644-0.848-0.885-1.329
						c-0.234-0.468-0.29-1.018-0.469-1.528c-0.173-0.491-0.471-0.955-0.59-1.485c-0.113-0.508,0-1.061-0.062-1.603
						C357.431,80.962,357.251,80.448,357.243,79.901z"/>
				</g>
				<g>
					<path d="M393.49,78.298c0-0.788-0.023-0.788-0.023-1.576s0.042-0.788,0.042-1.575c0-0.788-0.116-0.788-0.116-1.576
						c0-0.789-0.037-0.789-0.037-1.578c0-0.788,0.025-0.788,0.025-1.576c0-0.789,0.298-0.789,0.298-1.578s-0.079-0.789-0.079-1.577
						c0-0.789,0.045-0.789,0.045-1.578c0-0.787-0.391-0.787-0.391-1.574s0.087-0.787,0.087-1.574c0-0.79,0.272-0.79,0.272-1.58
						c0-0.788-0.281-0.788-0.281-1.576c0-0.79-0.02-0.79-0.02-1.579c0-0.791-0.022-0.791-0.022-1.581
						c0-0.789,0.013-0.789,0.013-1.578c0-0.791,0.327-0.791,0.327-1.582c0-0.792-0.219-0.792-0.219-1.585s-0.051-0.793-0.051-1.585
						c0-0.578,0.69-1.024,1.46-1.024c0.871,0,0.871,0.035,1.743,0.035c0.874,0,0.874-0.129,1.747-0.129
						c0.875,0,0.875,0.103,1.75,0.103s0.875-0.013,1.75-0.013c0.77,0,1.133,0.45,1.133,1.028c0,0.784,0.138,0.784,0.138,1.569
						c0,0.784-0.076,0.784-0.076,1.568s0.1,0.784,0.1,1.568c0,0.785,0.131,0.785,0.131,1.571c0,0.784-0.02,0.784-0.02,1.569
						s0.067,0.785,0.067,1.57s-0.209,0.785-0.209,1.57s-0.048,0.785-0.048,1.571c0,0.784,0.107,0.784,0.107,1.567
						s0.133,0.783,0.133,1.567c0,0.786-0.325,0.786-0.325,1.572c0,0.784,0.021,0.784,0.021,1.569c0,0.786,0.243,0.786,0.243,1.572
						c0,0.787-0.145,0.787-0.145,1.573s0.055,0.786,0.055,1.571c0,0.787,0.256,0.787,0.256,1.575c0,0.789-0.225,0.789-0.225,1.578
						c0,0.788-0.008,0.789,0.021,1.577c0.076,0.508,0.062,1.036,0.229,1.487c0.177,0.477,0.676,0.778,0.939,1.188
						c0.272,0.421,0.345,0.997,0.696,1.342c0.354,0.348,0.831,0.572,1.251,0.838c0.416,0.264,0.919,0.346,1.386,0.523
						c0.459,0.175,0.875,0.519,1.368,0.607c0.482,0.086,0.993,0.177,1.496,0.177c0.502,0,1.014-0.112,1.506-0.186
						c0.501-0.074,0.982-0.247,1.454-0.397c0.484-0.154,1.015-0.227,1.447-0.462c0.446-0.244,0.792-0.653,1.158-0.984
						c0.372-0.337,0.546-0.812,0.812-1.24c0.258-0.414,0.649-0.767,0.783-1.268c0.122-0.459-0.026-0.965-0.026-1.497
						c0-0.788,0.156-0.788,0.156-1.576s-0.072-0.788-0.072-1.575c0-0.788,0.119-0.788,0.119-1.576c0-0.789,0.157-0.789,0.157-1.578
						c0-0.788,0.005-0.788,0.005-1.576c0-0.789-0.308-0.789-0.308-1.578s-0.092-0.789-0.092-1.577c0-0.789,0.269-0.789,0.269-1.578
						c0-0.787,0.155-0.787,0.155-1.574s-0.137-0.787-0.137-1.574c0-0.79-0.006-0.79-0.006-1.58c0-0.788-0.051-0.788-0.051-1.576
						c0-0.79-0.073-0.79-0.073-1.579c0-0.791-0.013-0.791-0.013-1.581c0-0.789-0.062-0.789-0.062-1.578
						c0-0.791,0.114-0.791,0.114-1.582c0-0.792-0.135-0.792-0.135-1.585s0.223-0.793,0.223-1.585c0-0.578,0.502-0.947,1.271-0.947
						c0.705,0,0.705-0.343,1.41-0.343c0.703,0,0.703,0.172,1.407,0.172c0.706,0,0.706-0.082,1.411-0.082
						c0.707,0,0.707,0.182,1.413,0.182s0.706-0.256,1.413-0.256s1.302,0.696,1.302,1.274c0,0.788-0.156,0.788-0.156,1.576
						s-0.055,0.788-0.055,1.575c0,0.788,0.071,0.788,0.071,1.576c0,0.789,0.056,0.789,0.056,1.578c0,0.788-0.045,0.788-0.045,1.576
						c0,0.789,0.157,0.789,0.157,1.578s0.001,0.789,0.001,1.577c0,0.789-0.074,0.789-0.074,1.578c0,0.787,0.225,0.787,0.225,1.574
						s-0.166,0.787-0.166,1.574c0,0.79-0.014,0.79-0.014,1.58c0,0.788,0.004,0.788,0.004,1.576c0,0.79-0.216,0.79-0.216,1.579
						c0,0.791,0.05,0.791,0.05,1.581c0,0.789,0.085,0.789,0.085,1.578c0,0.792,0.055,0.792,0.055,1.583
						c0,0.792,0.008,0.792,0.008,1.584c0,0.793,0.106,0.793,0.106,1.585c0,0.546-0.154,1.077-0.201,1.597
						c-0.049,0.543-0.044,1.084-0.142,1.598c-0.103,0.533-0.196,1.068-0.35,1.57c-0.158,0.518-0.594,0.921-0.804,1.403
						c-0.215,0.494-0.13,1.138-0.396,1.594c-0.271,0.463-0.595,0.915-0.915,1.338c-0.323,0.426-0.934,0.605-1.303,0.989
						c-0.369,0.383-0.507,1.024-0.92,1.364c-0.409,0.337-0.86,0.66-1.31,0.954c-0.441,0.29-0.983,0.449-1.461,0.696
						c-0.468,0.243-0.966,0.45-1.466,0.651c-0.488,0.197-0.993,0.381-1.509,0.538c-0.504,0.153-1.016,0.332-1.543,0.446
						c-0.515,0.111-1.069,0.045-1.604,0.119c-0.521,0.072-1.029,0.385-1.568,0.421c-0.525,0.035-1.073-0.113-1.613-0.113
						c-0.538,0-1.079,0.069-1.604,0.031c-0.536-0.038-1.06-0.19-1.581-0.268c-0.531-0.078-1.048-0.218-1.562-0.335
						c-0.524-0.12-1.026-0.291-1.528-0.45c-0.512-0.163-1.043-0.257-1.53-0.46c-0.496-0.207-1.028-0.346-1.495-0.593
						c-0.475-0.252-0.904-0.591-1.345-0.883c-0.446-0.296-0.726-0.805-1.134-1.141c-0.412-0.339-1.057-0.427-1.427-0.806
						c-0.372-0.381-0.532-0.958-0.858-1.378c-0.326-0.419-0.526-0.911-0.803-1.367c-0.273-0.452-0.802-0.771-1.024-1.259
						c-0.219-0.479-0.132-1.082-0.298-1.595c-0.162-0.498-0.229-1.009-0.338-1.537c-0.104-0.513-0.355-0.998-0.408-1.538
						C393.547,79.368,393.49,78.841,393.49,78.298z"/>
				</g>
				<g>
					<path d="M467.705,62.009c0,0.531-0.044,1.054-0.088,1.545c-0.047,0.529-0.041,1.063-0.134,1.547
						c-0.102,0.522-0.582,0.932-0.732,1.402c-0.16,0.504-0.362,0.951-0.572,1.4c-0.222,0.476-0.434,0.916-0.704,1.333
						c-0.284,0.439-0.554,0.854-0.882,1.231c-0.341,0.393-0.562,0.891-0.939,1.224c-0.389,0.342-0.923,0.482-1.339,0.767
						c-0.428,0.292-0.771,0.706-1.215,0.942c-0.459,0.243-0.94,0.429-1.404,0.619c-0.484,0.199-0.915,0.542-1.39,0.69
						c-0.506,0.158-1.025,0.252-1.503,0.362c-0.528,0.122-1.05,0.19-1.52,0.265c-0.566,0.089-1.101,0.005-1.541,0.043
						c-0.789,0.068-1.337,0.312-1.52,0.312c-0.703,0-0.703-0.288-1.407-0.288c-0.705,0-0.705,0.035-1.41,0.035
						c-0.706,0-0.706,0.101-1.412,0.101s-1.118-0.741-1.581-0.208c-0.533,0.616,0.084,0.96,0.084,1.775s0.185,0.815,0.185,1.63
						c0,0.818-0.052,0.818-0.052,1.636c0,0.816-0.178,0.816-0.178,1.633c0,0.817-0.044,0.817-0.044,1.635
						c0,0.818,0.007,0.818,0.007,1.637c0,0.817,0.108,0.817,0.108,1.634c0,0.819,0.076,0.819,0.076,1.639
						c0,0.82,0.071,0.82,0.071,1.641s0.124,0.82,0.124,1.641c0,0.513-0.663,1.139-1.562,1.139c-0.871,0-0.871-0.084-1.743-0.084
						c-0.874,0-0.874,0.149-1.747,0.149c-0.875,0-0.875,0.056-1.75,0.056s-0.875-0.193-1.75-0.193c-0.77,0-1.403-0.554-1.403-1.066
						c0-0.781,0.157-0.781,0.157-1.562s-0.189-0.781-0.189-1.562c0-0.782,0.143-0.782,0.143-1.563c0-0.783-0.076-0.783-0.076-1.566
						s0.053-0.783,0.053-1.567c0-0.782,0.194-0.782,0.194-1.565c0-0.782-0.161-0.782-0.161-1.564s-0.199-0.782-0.199-1.564
						c0-0.783,0.352-0.783,0.352-1.567s0.008-0.784,0.008-1.567s-0.244-0.783-0.244-1.566s0.006-0.783,0.006-1.566
						c0-0.785,0.185-0.785,0.185-1.569c0-0.783-0.264-0.783-0.264-1.566c0-0.784-0.032-0.784-0.032-1.569
						c0-0.783,0.205-0.783,0.205-1.567c0-0.785-0.04-0.785-0.04-1.57c0-0.782,0.033-0.782,0.033-1.564s0.046-0.782,0.046-1.565
						c0-0.785,0.058-0.785,0.058-1.57c0-0.783-0.281-0.783-0.281-1.567s0.034-0.784,0.034-1.569c0-0.786,0.184-0.786,0.184-1.572
						c0-0.785,0.142-0.785,0.142-1.569c0-0.786-0.159-0.786-0.159-1.572c0-0.788-0.081-0.788-0.081-1.576s0.227-0.788,0.227-1.575
						c0-0.577,0.337-1.001,1.106-1.001c0.773,0,0.773-0.057,1.548-0.057c0.776,0,0.776,0.178,1.553,0.178
						c0.774,0,0.774-0.397,1.55-0.397c0.776,0,0.776,0.312,1.553,0.312c0.777,0,0.777-0.213,1.554-0.213s0.776-0.107,1.552-0.107
						c0.777,0,0.777,0.18,1.556,0.18c0.779,0,0.779-0.051,1.559-0.051c0.778,0,0.778,0.264,1.558,0.264
						c0.272,0,0.811-0.144,1.535-0.087c0.447,0.035,0.979-0.027,1.545,0.058c0.474,0.07,0.974,0.217,1.504,0.335
						c0.48,0.107,1.029,0.085,1.537,0.242c0.479,0.148,0.854,0.631,1.342,0.831c0.468,0.192,0.903,0.437,1.364,0.685
						c0.447,0.239,0.871,0.494,1.3,0.792c0.417,0.289,1.05,0.32,1.438,0.671c0.375,0.339,0.542,0.9,0.88,1.302
						c0.324,0.386,0.595,0.806,0.875,1.254c0.266,0.424,0.581,0.825,0.799,1.31c0.204,0.453,0.332,0.945,0.487,1.455
						c0.146,0.477,0.563,0.911,0.661,1.438c0.09,0.487,0.162,1.019,0.207,1.552C467.739,60.939,467.705,61.473,467.705,62.009z
						 M457.777,62.009c0-0.61-0.072-1.087-0.251-1.541c-0.212-0.538-0.553-0.867-0.932-1.222c-0.403-0.376-0.667-0.954-1.152-1.167
						c-0.524-0.229-1.091-0.411-1.579-0.505c-0.729-0.142-1.374-0.138-1.641-0.138c-0.703,0-0.703,0.034-1.407,0.034
						c-0.705,0-0.705,0.195-1.41,0.195c-0.706,0-0.706-0.215-1.412-0.215s-0.887-0.342-1.38,0.165
						c-0.506,0.52-0.021,0.692-0.021,1.418c0,0.727,0.178,0.727,0.178,1.453c0,0.726-0.043,0.726-0.043,1.451
						c0,0.728-0.029,0.728-0.029,1.454c0,0.729-0.143,0.729-0.143,1.456c0,0.729-0.327,0.784,0.179,1.308
						c0.489,0.507,0.549,0.223,1.253,0.223c0.705,0,0.705-0.035,1.41-0.035c0.706,0,0.706-0.101,1.412-0.101
						s0.706,0.284,1.413,0.284c0.281,0,0.9-0.149,1.615-0.27c0.488-0.082,0.977-0.391,1.5-0.605c0.489-0.2,0.969-0.415,1.373-0.783
						c0.381-0.346,0.851-0.693,1.062-1.23C457.949,63.189,457.777,62.619,457.777,62.009z"/>
				</g>
				<g>
					<path d="M504.327,62.009c0,0.531-0.114,1.024-0.158,1.516c-0.047,0.529,0.033,1.043-0.06,1.526
						c-0.102,0.522-0.126,1.046-0.276,1.517c-0.16,0.504-0.264,1.027-0.474,1.477c-0.223,0.476-0.759,0.761-1.029,1.178
						c-0.284,0.439-0.4,0.981-0.728,1.359c-0.341,0.394-0.722,0.745-1.099,1.078c-0.389,0.342-0.873,0.548-1.289,0.832
						c-0.428,0.292-0.816,0.626-1.262,0.862c-0.457,0.243-0.865,0.597-1.329,0.787c-0.484,0.199-1.004,0.294-1.479,0.442
						c-0.506,0.158-1.037,0.161-1.514,0.271c-0.529,0.122-0.988,0.486-1.458,0.561c-0.566,0.089-1.106-0.001-1.547,0.037
						c-0.789,0.068-1.343-0.086-1.525-0.086c-0.703,0-0.703,0.225-1.407,0.225c-0.705,0-0.705-0.126-1.41-0.126
						c-0.706,0-0.706,0.169-1.413,0.169c-0.706,0-1.086-0.808-1.549-0.274c-0.533,0.616,0.282,0.933,0.282,1.748
						s-0.309,0.815-0.309,1.63c0,0.818,0.053,0.818,0.053,1.636c0,0.816,0.027,0.816,0.027,1.633c0,0.817,0.078,0.817,0.078,1.635
						c0,0.818,0.09,0.818,0.09,1.637c0,0.817-0.128,0.817-0.128,1.634c0,0.819,0.19,0.819,0.19,1.639c0,0.82-0.026,0.82-0.026,1.641
						s0.032,0.82,0.032,1.641c0,0.513-0.603,1.235-1.501,1.235c-0.871,0-0.871-0.188-1.743-0.188c-0.874,0-0.874-0.138-1.747-0.138
						c-0.875,0-0.875,0.011-1.75,0.011s-0.875-0.048-1.75-0.048c-0.77,0-1.476-0.36-1.476-0.873c0-0.781,0.059-0.781,0.059-1.562
						s0.293-0.781,0.293-1.562c0-0.782-0.373-0.782-0.373-1.563c0-0.783,0.072-0.783,0.072-1.566s0.083-0.783,0.083-1.567
						c0-0.782,0.104-0.782,0.104-1.565c0-0.782-0.011-0.782-0.011-1.564s-0.229-0.782-0.229-1.564c0-0.783,0.184-0.783,0.184-1.567
						s0.158-0.784,0.158-1.567s-0.333-0.783-0.333-1.566s-0.021-0.783-0.021-1.566c0-0.785,0.243-0.785,0.243-1.569
						c0-0.783-0.171-0.783-0.171-1.566c0-0.784,0.223-0.784,0.223-1.569c0-0.783-0.131-0.783-0.131-1.567
						c0-0.785,0.084-0.785,0.084-1.57c0-0.782-0.237-0.782-0.237-1.564s0.116-0.782,0.116-1.565c0-0.785,0.093-0.785,0.093-1.57
						c0-0.783,0.21-0.783,0.21-1.567s-0.396-0.784-0.396-1.569c0-0.786,0.343-0.786,0.343-1.572c0-0.785-0.068-0.785-0.068-1.569
						c0-0.786-0.223-0.786-0.223-1.572c0-0.788-0.004-0.788-0.004-1.576s0.093-0.788,0.093-1.575c0-0.577,0.546-1.255,1.315-1.255
						c0.773,0,0.773,0.3,1.548,0.3c0.776,0,0.776-0.223,1.553-0.223c0.774,0,0.774,0.277,1.55,0.277
						c0.776,0,0.776-0.387,1.553-0.387c0.777,0,0.777,0.008,1.554,0.008s0.776,0.248,1.552,0.248c0.777,0,0.777-0.138,1.556-0.138
						c0.779,0,0.779-0.119,1.559-0.119c0.778,0,0.778,0.285,1.558,0.285c0.272,0,0.819-0.146,1.544-0.09
						c0.447,0.035,0.942,0.27,1.508,0.354c0.474,0.07,1.035-0.113,1.564,0.005c0.481,0.107,0.933,0.436,1.441,0.593
						c0.479,0.148,0.961,0.321,1.448,0.521c0.468,0.192,0.958,0.359,1.419,0.607c0.447,0.239,0.928,0.453,1.356,0.751
						c0.417,0.289,0.747,0.707,1.135,1.058c0.375,0.34,0.934,0.532,1.271,0.935c0.324,0.385,0.551,0.884,0.832,1.332
						c0.266,0.424,0.556,0.872,0.773,1.355c0.204,0.454,0.202,1.011,0.358,1.521c0.145,0.476,0.502,0.928,0.6,1.454
						c0.09,0.487,0.145,1.019,0.189,1.552C504.585,60.942,504.327,61.473,504.327,62.009z M494.913,62.009
						c0-0.61-0.024-1.207-0.202-1.661c-0.212-0.538-0.682-0.936-1.061-1.29c-0.403-0.376-0.929-0.571-1.415-0.784
						c-0.523-0.229-1.068-0.279-1.556-0.373c-0.729-0.142-1.312-0.492-1.578-0.492c-0.703,0-0.703,0.236-1.407,0.236
						c-0.705,0-0.705-0.021-1.41-0.021c-0.706,0-0.706-0.134-1.413-0.134c-0.706,0-0.924-0.417-1.416,0.089
						c-0.506,0.521,0.147,0.729,0.147,1.455c0,0.727-0.086,0.727-0.086,1.453c0,0.726-0.135,0.726-0.135,1.451
						c0,0.728,0.273,0.728,0.273,1.454c0,0.729-0.149,0.729-0.149,1.456c0,0.729-0.633,1.01-0.127,1.534
						c0.489,0.506,0.783-0.19,1.487-0.19c0.705,0,0.705,0.126,1.41,0.126c0.706,0,0.706-0.169,1.412-0.169s0.706,0.337,1.413,0.337
						c0.281,0,0.862-0.335,1.577-0.455c0.488-0.082,1.114,0.081,1.638-0.134c0.49-0.2,0.977-0.542,1.381-0.911
						c0.38-0.346,0.701-0.827,0.912-1.364C494.786,63.173,494.913,62.619,494.913,62.009z"/>
				</g>
				<g>
					<path d="M534.768,83.234c0.834,0,1.271,0.771,1.271,1.349c0,0.712,0.168,0.712,0.168,1.423c0,0.71,0.068,0.71,0.068,1.42
						c0,0.712,0.013,0.712,0.013,1.424c0,0.713-0.02,0.713-0.02,1.427c0,0.713,0.076,0.713,0.076,1.426
						c0,0.513-0.743,1.104-1.577,1.104c-0.766,0-0.766-0.184-1.53-0.184s-0.765,0.35-1.528,0.35c-0.765,0-0.765-0.255-1.529-0.255
						s-0.765,0.099-1.529,0.099c-0.766,0-0.766,0.184-1.53,0.184c-0.763,0-0.763-0.067-1.526-0.067s-0.764-0.146-1.526-0.146
						c-0.766,0-0.766,0.037-1.531,0.037c-0.765,0-0.765-0.058-1.528-0.058c-0.766,0-0.766-0.165-1.531-0.165
						s-0.766,0.099-1.532,0.099c-0.765,0-0.765-0.096-1.53-0.096c-0.768,0-0.768,0.242-1.534,0.242
						c-0.769,0-0.769-0.146-1.537-0.146s-0.769,0.099-1.536,0.099c-0.77,0-1.181-0.584-1.181-1.097c0-0.787-0.029-0.787-0.029-1.574
						c0-0.786-0.066-0.786-0.066-1.573c0-0.788,0.015-0.788,0.015-1.576c0-0.789-0.132-0.789-0.132-1.577
						c0-0.79-0.055-0.79-0.055-1.58c0-0.788,0.212-0.788,0.212-1.576s-0.181-0.788-0.181-1.576s-0.111-0.788-0.111-1.577
						s0.364-0.789,0.364-1.579s-0.358-0.79-0.358-1.579s0.158-0.789,0.158-1.578s0.068-0.789,0.068-1.579s-0.035-0.79-0.035-1.58
						s0.202-0.79,0.202-1.579c0-0.791-0.224-0.791-0.224-1.581s0.015-0.79,0.015-1.58s-0.044-0.79-0.044-1.581
						c0-0.789-0.163-0.789-0.163-1.577s0.134-0.788,0.134-1.576c0-0.791-0.122-0.791-0.122-1.582c0-0.79,0.151-0.79,0.151-1.58
						s0.074-0.79,0.074-1.581c0-0.792,0.031-0.792,0.031-1.584c0-0.791-0.256-0.791-0.256-1.581c0-0.792,0.297-0.792,0.297-1.585
						s-0.276-0.793-0.276-1.587s0.32-0.794,0.32-1.588c0-0.577,0.422-1.292,1.191-1.292c0.718,0,0.718-0.028,1.436-0.028
						c0.717,0,0.717,0.06,1.434,0.06c0.719,0,0.719-0.116,1.437-0.116c0.72,0,0.72,0.024,1.438,0.024c0.72,0,0.72,0.216,1.439,0.216
						c0.77,0,1.547,0.56,1.547,1.137c0,0.78-0.008,0.78-0.008,1.56s-0.276,0.779-0.276,1.558c0,0.78,0.229,0.78,0.229,1.56
						c0,0.781-0.251,0.781-0.251,1.562s0.299,0.78,0.299,1.562c0,0.779-0.055,0.779-0.055,1.56s0.07,0.78,0.07,1.562
						s-0.125,0.781-0.125,1.562c0,0.78,0.03,0.78,0.03,1.561c0,0.781-0.125,0.781-0.125,1.563c0,0.78-0.048,0.78-0.048,1.562
						s0.032,0.781,0.032,1.563c0,0.78-0.029,0.78-0.029,1.56s0.158,0.779,0.158,1.559c0,0.782,0.018,0.782,0.018,1.564
						c0,0.781,0.04,0.781,0.04,1.562c0,0.782-0.354,0.782-0.354,1.563c0,0.783,0.369,0.783,0.369,1.565s-0.058,0.782-0.058,1.563
						c0,0.783-0.033,0.783-0.033,1.567s-0.025,0.784-0.025,1.569s-0.471,0.871,0.09,1.421c0.569,0.56,0.652,0.35,1.451,0.35
						c0.801,0,0.801-0.01,1.603-0.01c0.8,0,0.8-0.33,1.6-0.33c0.802,0,0.802,0.318,1.603,0.318c0.802,0,0.802-0.214,1.604-0.214
						c0.801,0,0.801-0.108,1.602-0.108c0.803,0,0.803,0.162,1.605,0.162c0.805,0,0.805,0.023,1.606-0.041
						C533.968,83.342,533.963,83.234,534.768,83.234z"/>
				</g>
				<g>
					<path d="M547.404,47.857c0.512,0,1.082,0.365,1.211,0.814c0.256,0.761,0.144,0.8,0.408,1.557
						c0.265,0.756,0.586,0.644,0.851,1.399s0,0.849,0.265,1.604c0.265,0.758,0.159,0.795,0.425,1.553
						c0.265,0.757,0.519,0.668,0.783,1.425c0.266,0.757,0.327,0.735,0.592,1.493c0.266,0.759,0.293,0.749,0.559,1.508
						c0.266,0.758,0.215,0.775,0.48,1.532c0.266,0.76,0.222,0.774,0.487,1.534c0.267,0.761,0.064,0.831,0.331,1.592
						c0.266,0.761,0.236,0.79,0.704,1.445c0.19-0.509,0.159-1.055,0.352-1.561c0.192-0.509,0.595-0.938,0.788-1.443
						c0.194-0.507,0.355-1.025,0.551-1.53c0.195-0.506,0.596-0.931,0.792-1.436s0.397-1.007,0.593-1.511
						c0.196-0.503,0.024-1.15,0.221-1.653s0.402-1.003,0.599-1.507c0.195-0.503,0.441-0.986,0.637-1.491
						c0.194-0.503,0.57-0.938,0.765-1.443c0.193-0.504,0.248-1.061,0.44-1.567c0.192-0.506,0.574-0.936,0.766-1.445
						c0.193-0.385,0.447-0.762,1.023-0.762c0.763,0,0.763,0.104,1.525,0.104c0.762,0,0.762-0.127,1.523-0.127
						c0.764,0,0.764-0.035,1.526-0.035c0.765,0,0.765-0.106,1.528-0.106c0.765,0,0.765,0.082,1.529,0.082
						c0.961,0,1.502,0.799,1.182,1.568c-0.291,0.731-0.272,0.738-0.557,1.473c-0.285,0.733-0.289,0.731-0.573,1.465
						c-0.284,0.732-0.25,0.746-0.534,1.479s-0.229,0.754-0.514,1.487c-0.284,0.733-0.493,0.652-0.778,1.387
						s-0.047,0.826-0.332,1.561c-0.285,0.735-0.418,0.684-0.703,1.419c-0.285,0.734-0.237,0.753-0.522,1.487
						s-0.316,0.722-0.602,1.456c-0.284,0.733-0.27,0.739-0.555,1.474c-0.285,0.735-0.304,0.729-0.589,1.464s-0.479,0.66-0.765,1.395
						c-0.285,0.735,0.061,0.869-0.224,1.604c-0.285,0.734-0.271,0.74-0.556,1.476s-0.417,0.685-0.702,1.421
						c-0.285,0.734-0.249,0.749-0.534,1.484s-0.512,0.647-0.798,1.384c-0.285,0.735-0.359,0.707-0.645,1.443
						c-0.286,0.736,0.106,0.888-0.18,1.624c-0.284,0.734-0.344,0.711-0.628,1.445c-0.285,0.734-0.576,0.621-0.861,1.355
						c-0.286,0.737-0.303,0.73-0.589,1.467c-0.285,0.735-0.131,0.796-0.416,1.531c-0.285,0.736-0.143,0.792-0.429,1.527
						c-0.286,0.737-0.621,0.607-0.907,1.345c-0.285,0.736-0.234,0.756-0.521,1.492c-0.286,0.738-0.306,0.73-0.593,1.469
						c-0.286,0.738-0.127,0.801-0.413,1.539c-0.287,0.739-0.246,0.756-0.544,1.49c-0.013,0.03,0.165-0.045,0.155-0.014
						c-0.127,0.449-0.744,0.843-1.387,0.843c-0.736,0-0.736-0.185-1.474-0.185c-0.735,0-0.735,0.02-1.472,0.02
						c-0.737,0-0.737,0.099-1.475,0.099c-0.738,0-0.738-0.144-1.478-0.144s-0.739,0.217-1.478,0.217
						c-0.455,0-0.906-0.249-1.137-0.512c-0.256-0.293-0.333-0.812-0.097-1.218c0.019-0.026-0.086,0.088-0.074,0.059
						c0.281-0.709,0.354-0.679,0.625-1.393c0.271-0.716,0.4-0.666,0.671-1.382c0.271-0.715,0.376-0.675,0.646-1.391
						c0.271-0.715,0.105-0.777,0.376-1.493c0.271-0.717,0.142-0.766,0.412-1.482c0.271-0.715,0.516-0.622,0.786-1.338
						c0.271-0.717,0.28-0.714,0.552-1.431c0.271-0.719,0.108-0.78,0.38-1.498c0.272-0.719,0.735-0.656,0.729-1.424
						c-0.007-0.777-0.561-0.672-0.845-1.396c-0.285-0.724-0.274-0.728-0.56-1.451c-0.285-0.725,0-0.837-0.285-1.561
						c-0.284-0.724-0.262-0.732-0.547-1.456c-0.284-0.724-0.643-0.583-0.928-1.307c-0.286-0.725-0.143-0.781-0.429-1.506
						c-0.284-0.724-0.406-0.676-0.691-1.399c-0.285-0.725,0.064-0.862-0.222-1.587c-0.285-0.725-0.557-0.617-0.842-1.342
						c-0.286-0.725-0.107-0.795-0.394-1.521c-0.284-0.723-0.499-0.638-0.783-1.36c-0.285-0.724-0.321-0.709-0.606-1.432
						c-0.285-0.726,0.016-0.845-0.271-1.57c-0.285-0.724-0.43-0.667-0.715-1.391c-0.286-0.726-0.128-0.788-0.413-1.513
						c-0.286-0.726-0.602-0.602-0.888-1.327c-0.285-0.725-0.19-0.762-0.476-1.487c-0.286-0.727-0.271-0.732-0.558-1.459
						c-0.286-0.729-0.374-0.693-0.661-1.422c-0.286-0.728,0.049-0.861-0.245-1.586c-0.173-0.382-0.247-0.66,0.017-0.965
						c0.224-0.259,0.521-0.528,0.994-0.528c0.82,0,0.82-0.134,1.641-0.134c0.818,0,0.818,0.216,1.638,0.216
						c0.821,0,0.821,0.101,1.642,0.101c0.822,0,0.824-0.02,1.646-0.034C546.584,47.996,546.582,47.857,547.404,47.857z"/>
				</g>
			</g>
		</g>
		<line fill="none" x1="281.333" y1="39.003" x2="644.439" y2="39.003"/>
		<g>
			<g>
				<line stroke="#000000" stroke-miterlimit="10" x1="484.145" y1="105.5" x2="512.299" y2="105.5"/>
				<polygon points="496.027,102.967 500.416,105.5 496.027,108.033 				"/>
			</g>
			<g>
				<line stroke="#000000" stroke-miterlimit="10" x1="411.895" y1="105.5" x2="440.049" y2="105.5"/>
				<polygon points="423.777,102.967 428.166,105.5 423.777,108.033 				"/>
			</g>
		</g>
	</g>
</g>
<g id="Effects">
</g>
</svg>
